<?xml version="1.0" encoding="utf-8"?>
<!-- Generator: Adobe Illustrator 24.3.0, SVG Export Plug-In . SVG Version: 6.00 Build 0)  -->
<svg version="1.1" id="Capa_1" xmlns="http://www.w3.org/2000/svg" xmlns:xlink="http://www.w3.org/1999/xlink" x="0px" y="0px"
	 viewBox="0 0 800 800" style="enable-background:new 0 0 800 800;" xml:space="preserve">
<style type="text/css">
	.st0{fill:#EE7E6E;}
	.st1{fill:none;}
	.st2{fill:#ED717B;}
</style>
<g>
	<path class="st0" d="M177.8,525.7l-35.9,92h13.8l34.2-87.3C189.9,530.1,178.5,526.1,177.8,525.7z"/>
	<path class="st0" d="M400,0h-16.8L182.2,514c0.3,0.7,9.7,4.4,12.4,4.7l37.9-97l5-12.8L391,17.1l153.4,391.4l5,13.1l77.9,195.7h13.8
		L400,0z"/>
	<g>
		<g>
			<line class="st1" x1="177.8" y1="525.7" x2="189.9" y2="530.4"/>
		</g>
	</g>
	<g>
		<g>
			<line class="st1" x1="182.2" y1="514" x2="194.9" y2="519"/>
		</g>
	</g>
	<g>
		<path class="st2" d="M560.5,200.8c-33.9,0-54.7,6-74.2,20.1l5,12.8c17.8-13.4,38.3-19.8,68.8-19.8c100.4,0,145,77.2,145,139.3
			c0,66.1-33.9,117.8-108.4,150.4l4.7,12.1C679.4,482.8,720,426.4,720,353.2C720,275.3,660.9,200.8,560.5,200.8z"/>
		<path class="st2" d="M474.2,229.6c-96.7,76.9-40.6,297.8-224.9,297.8c-107.4,0-154.8-83.3-154.8-157.4c0-46.7,10.4-96.7,46-131.9
			c9.4-9.4,29.9-29.5,62.1-36.3c20.8-4.4,38.3-1.3,51.7,0.7c12.8,2,35.2,9.1,45,12.8c0.3-0.7,2-5.4,2-5.4l2.7-7
			c-10.1-4-31.6-11.1-45.3-13.4c-10.4-1.7-31.2-5-55.4-0.7c-44,8.1-71.8,36.9-79.9,45.3c-30.9,33.6-43,80.6-43,136
			c0,87.6,58.4,169.5,168.5,169.5c196.1,0,140-220.2,230.3-296.4C479.3,242.7,474.6,230.3,474.2,229.6z"/>
	</g>
	<g>
		<g>
			<line class="st1" x1="486.3" y1="220.6" x2="491.4" y2="233.7"/>
		</g>
	</g>
	<g>
		<g>
			<line class="st1" x1="474.2" y1="229.6" x2="479.6" y2="243.1"/>
		</g>
	</g>
	<polygon class="st0" points="493.7,239.4 481.6,247.8 472.2,224.3 484.6,216.5 	"/>
	<g>
		<path class="st2" d="M222.5,641.2c0.7-0.7,1.3-1,2.4-1c1.7,0,2.7,1.3,2.7,2.7v66.5c0,1.3-1,2.7-2.7,2.7c-1.7,0-2.7-1.3-2.7-2.7
			v-18.1h-22.5c-1.3,0-2.4-1-2.4-2.4c0-1.3,1-2.4,2.4-2.4h22.5v-36.9l-51.7,61.8c-0.3,0.3-1.3,1-2,1c-1.3,0-2.7-1.3-2.7-2.7
			c0-0.7,0.3-1,0.7-1.7L222.5,641.2z"/>
		<path class="st2" d="M241.6,678.8c0-11.7,7-19.8,18.8-19.8c1.3,0,2.4,1,2.4,2.4c0,1.3-1,2.3-2.4,2.3c-8.4,0-13.8,5.4-13.8,15.1
			v30.5c0,1.3-1,2.7-2.7,2.7s-2.7-1.3-2.7-2.7v-30.5H241.6z"/>
		<path class="st2" d="M267.8,685.5c0-14.8,11.4-26.5,26.5-26.5c8.4,0,15.4,3.7,19.8,9.1c0.3,0.3,0.7,1.3,0.7,2c0,1.3-1,2.3-2.7,2.3
			c-1,0-1.3-0.3-2-1c-3.7-4.4-9.4-7.4-16.1-7.4c-11.7,0-21.5,9.7-21.5,22.2c0,12.4,9.4,22.2,21.5,22.2c6.7,0,12.4-3,16.1-7.7
			c0.7-0.7,1.3-1,2-1c1.3,0,2.7,1,2.7,2.4c0,0.3-0.3,1.3-0.7,1.7c-4.7,5.4-11.7,9.1-19.8,9.1C279.5,712.4,267.8,700.6,267.8,685.5z"
			/>
		<path class="st2" d="M324.2,685.5c0-14.8,11.4-26.5,26.5-26.5c14.8,0,26.2,11.7,26.2,26.5c0,14.8-11.4,26.5-26.2,26.5
			C335.6,712.4,324.2,700.6,324.2,685.5z M371.5,685.5c0-12.4-9.4-22.2-21.1-22.2c-11.7,0-21.5,9.7-21.5,22.2
			c0,12.1,9.4,22.2,21.5,22.2C362.4,707.7,371.5,697.9,371.5,685.5z"/>
		<path class="st2" d="M388.6,697.3c1,0,2,0.7,2.4,1.7c0.3,4.4,4,8.7,10.7,8.7c6.4,0,10.1-4.7,10.1-9.4c0-6-4.4-9.1-10.4-11.1
			c-7.4-2.4-14.4-5-14.4-14.8c0-8.1,6-13.8,14.8-13.8c8.4,0,14.8,5.4,14.8,12.8c0,1.3-1,2.3-2.4,2.3c-0.7,0-2-0.3-2.4-2
			c-0.3-4.4-4-8.4-10.4-8.4c-6.4,0-9.7,4.4-9.7,9.4c0,6.4,5.4,8.7,12.4,11.1c6.4,2,12.8,5.7,12.8,14.4c0,7.4-6.4,13.8-15.1,13.8
			c-8.4,0-15.1-6-15.1-12.8C386.3,698.3,387.3,697.3,388.6,697.3z"/>
		<path class="st2" d="M382.2,782.9c0-1.3,1-2.7,2.7-2.7c1.3,0,2.4,1,2.7,2c0.3,5.7,6.4,12.4,15.4,12.4c9.4,0,15.4-7,15.4-14.1
			c0-10.1-8.1-13.4-13.4-14.8l-5-1.3c-5.7-1.7-16.8-5.7-16.8-18.8c0-10.7,8.4-18.5,20.1-18.5c11.7,0,19.8,7.7,19.8,16.8
			c0,1.3-1,2.7-2.7,2.7s-2.4-1-2.7-2.4c-0.3-6-5.7-12.1-14.8-12.1c-9.1,0-14.8,6.7-14.8,13.8c0,10.1,9.4,12.8,14.1,14.1l4.7,1.3
			c5.7,1.7,16.8,5.4,16.8,19.8c0,10.1-8.7,18.8-20.8,18.8C391,799.7,382.2,790.9,382.2,782.9z"/>
		<path class="st2" d="M432.9,773.1c0-14.8,11.7-26.9,26.5-26.9s26.2,11.7,26.2,26.9c0,14.8-11.4,26.5-26.2,26.5
			C444.7,799.7,432.9,787.9,432.9,773.1z M480.6,773.1c0-12.4-9.4-22.2-21.1-22.2c-11.7,0-21.5,9.7-21.5,22.2
			c0,12.1,9.4,22.2,21.5,22.2S480.6,785.2,480.6,773.1z"/>
		<path class="st2" d="M495.4,773.1c0-14.8,11.4-26.9,26.5-26.9c8.4,0,15.4,3.7,19.8,9.1c0.3,0.7,0.7,1.3,0.7,2c0,1.3-1,2.3-2.7,2.3
			c-1,0-1.3-0.3-2-1c-3.7-4.4-9.4-7.4-16.1-7.4c-11.7,0-21.5,9.7-21.5,22.2c0,12.4,9.4,22.2,21.5,22.2c6.7,0,12.4-3,16.1-7.7
			c0.7-0.7,1.3-1,2-1c1.3,0,2.7,1,2.7,2.4c0,0.3-0.3,1.3-0.7,1.7c-4.7,5.4-11.7,9.1-19.8,9.1C506.8,799.7,495.4,787.9,495.4,773.1z"
			/>
		<path class="st2" d="M553.8,735.5c0-2,1.3-3.4,3.4-3.4s3.4,1.7,3.4,3.4c0,2-1.7,3.4-3.4,3.4C555.1,739.2,553.8,737.6,553.8,735.5z
			 M554.8,749c0-1.3,1-2.7,2.7-2.7c1.3,0,2.7,1,2.7,2.7v47.7c0,1.3-1,2.7-2.7,2.7c-1.7,0-2.7-1.3-2.7-2.7V749z"/>
		<path class="st2" d="M619.3,788.2c-4.7,7-12.4,11.4-21.5,11.4c-14.8,0-26.2-11.7-26.2-26.5c0-14.8,11.4-26.9,26.2-26.9
			c9.1,0,16.8,4.7,21.5,11.4V749c0-1.3,1-2.7,2.7-2.7c1.7,0,2.7,1,2.7,2.7v47.7c0,1.3-1,2.7-2.7,2.7c-1.7,0-2.7-1.3-2.7-2.7V788.2z
			 M619.3,773.8v-1.7c-0.3-11.7-9.7-21.1-21.1-21.1c-11.7,0-21.5,9.7-21.5,22.2c0,12.4,9.4,22.2,21.5,22.2
			C609.9,795,618.9,785.9,619.3,773.8z"/>
		<path class="st2" d="M638.7,729.8c0-1.3,1-2.7,2.7-2.7c1.3,0,2.7,1,2.7,2.7v66.8c0,1.3-1,2.7-2.7,2.7c-1.7,0-2.7-1.3-2.7-2.7
			V729.8z"/>
	</g>
</g>
</svg>
